<svg width="109.082" height="56.251" viewBox="0 0 109.082 56.251" xmlns="http://www.w3.org/2000/svg"><g id="svgGroup" stroke-linecap="round" fill-rule="evenodd" font-size="9pt" stroke="#000000" stroke-width="0" fill="#ffffff" style="stroke:#000000;stroke-width:0;fill:#ffffff"><path d="M 33.252 18.213 L 33.252 18.018 Q 33.252 16.113 32.373 14.795 A 5.182 5.182 0 0 0 30.57 13.148 A 6.665 6.665 0 0 0 29.834 12.793 Q 28.367 12.189 26.366 12.119 A 15.275 15.275 0 0 0 25.83 12.11 A 13.727 13.727 0 0 0 23.631 12.278 A 10.399 10.399 0 0 0 21.656 12.793 A 8.392 8.392 0 0 0 19.85 13.716 A 6.973 6.973 0 0 0 18.653 14.746 Q 17.481 16.016 16.992 17.725 L 1.563 15.723 A 18.339 18.339 0 0 1 5.786 7.495 A 19.516 19.516 0 0 1 11.005 3.386 A 24.962 24.962 0 0 1 14.038 1.978 Q 19.141 0 25.977 0 A 38.159 38.159 0 0 1 32.503 0.54 A 32.825 32.825 0 0 1 35.474 1.197 A 26.629 26.629 0 0 1 40.334 3.013 A 22.224 22.224 0 0 1 43.213 4.712 Q 46.533 7.031 48.389 10.425 A 15.097 15.097 0 0 1 50.098 15.82 A 19.001 19.001 0 0 1 50.244 18.213 L 50.244 55.274 L 34.229 55.274 L 34.229 47.608 L 33.789 47.608 A 15.65 15.65 0 0 1 31.155 51.317 A 14.326 14.326 0 0 1 30.054 52.344 Q 27.783 54.248 24.781 55.249 A 19.037 19.037 0 0 1 21.147 56.059 A 25.292 25.292 0 0 1 17.969 56.25 Q 12.744 56.25 8.667 54.468 A 14.04 14.04 0 0 1 2.295 49.097 A 14.012 14.012 0 0 1 0.443 44.513 Q 0.035 42.655 0.003 40.504 A 24.715 24.715 0 0 1 0 40.137 Q 0 35.596 1.587 32.471 A 13.474 13.474 0 0 1 6.006 27.393 Q 8.838 25.44 12.5 24.414 A 40.188 40.188 0 0 1 18.268 23.261 A 46.28 46.28 0 0 1 20.313 23.047 A 166.314 166.314 0 0 0 22.519 22.847 Q 25.218 22.584 27.166 22.29 A 49.763 49.763 0 0 0 27.783 22.193 Q 30.615 21.729 31.934 20.801 A 3.062 3.062 0 0 0 32.902 19.73 Q 33.214 19.141 33.248 18.398 A 4.03 4.03 0 0 0 33.252 18.213 Z M 92.09 18.213 L 92.09 18.018 Q 92.09 16.113 91.211 14.795 A 5.182 5.182 0 0 0 89.407 13.148 A 6.665 6.665 0 0 0 88.672 12.793 Q 87.205 12.189 85.204 12.119 A 15.275 15.275 0 0 0 84.668 12.11 A 13.727 13.727 0 0 0 82.469 12.278 A 10.399 10.399 0 0 0 80.493 12.793 A 8.392 8.392 0 0 0 78.688 13.716 A 6.973 6.973 0 0 0 77.49 14.746 Q 76.319 16.016 75.83 17.725 L 60.401 15.723 A 18.339 18.339 0 0 1 64.624 7.495 A 19.516 19.516 0 0 1 69.843 3.386 A 24.962 24.962 0 0 1 72.876 1.978 Q 77.979 0 84.815 0 A 38.159 38.159 0 0 1 91.341 0.54 A 32.825 32.825 0 0 1 94.312 1.197 A 26.629 26.629 0 0 1 99.172 3.013 A 22.224 22.224 0 0 1 102.051 4.712 Q 105.371 7.031 107.227 10.425 A 15.097 15.097 0 0 1 108.936 15.82 A 19.001 19.001 0 0 1 109.082 18.213 L 109.082 55.274 L 93.067 55.274 L 93.067 47.608 L 92.627 47.608 A 15.65 15.65 0 0 1 89.993 51.317 A 14.326 14.326 0 0 1 88.892 52.344 Q 86.621 54.248 83.618 55.249 A 19.037 19.037 0 0 1 79.985 56.059 A 25.292 25.292 0 0 1 76.807 56.25 Q 71.582 56.25 67.505 54.468 A 14.04 14.04 0 0 1 61.133 49.097 A 14.012 14.012 0 0 1 59.281 44.513 Q 58.873 42.655 58.841 40.504 A 24.715 24.715 0 0 1 58.838 40.137 Q 58.838 35.596 60.425 32.471 A 13.474 13.474 0 0 1 64.844 27.393 Q 67.676 25.44 71.338 24.414 A 40.188 40.188 0 0 1 77.106 23.261 A 46.28 46.28 0 0 1 79.151 23.047 A 166.314 166.314 0 0 0 81.357 22.847 Q 84.056 22.584 86.004 22.29 A 49.763 49.763 0 0 0 86.621 22.193 Q 89.453 21.729 90.772 20.801 A 3.062 3.062 0 0 0 91.74 19.73 Q 92.052 19.141 92.086 18.398 A 4.03 4.03 0 0 0 92.09 18.213 Z M 33.399 35.84 L 33.399 30.615 A 7.936 7.936 0 0 1 32.743 30.925 Q 32.416 31.062 32.039 31.193 A 15.434 15.434 0 0 1 31.568 31.348 Q 30.469 31.69 29.151 31.958 Q 27.832 32.227 26.514 32.447 A 408.454 408.454 0 0 1 24.591 32.762 A 362.931 362.931 0 0 1 23.975 32.862 Q 21.749 33.167 20.108 33.863 A 10.404 10.404 0 0 0 19.727 34.033 A 7.983 7.983 0 0 0 18.348 34.853 A 5.907 5.907 0 0 0 17.041 36.182 A 5.058 5.058 0 0 0 16.179 38.408 A 6.652 6.652 0 0 0 16.114 39.356 A 5.84 5.84 0 0 0 16.291 40.829 A 4.515 4.515 0 0 0 17.041 42.407 Q 17.969 43.653 19.531 44.312 A 8.155 8.155 0 0 0 21.444 44.845 A 10.968 10.968 0 0 0 23.145 44.971 Q 26.026 44.971 28.345 43.799 A 9.605 9.605 0 0 0 31.437 41.373 A 9.303 9.303 0 0 0 32.031 40.576 A 8.174 8.174 0 0 0 33.377 36.502 A 10.108 10.108 0 0 0 33.399 35.84 Z M 92.237 35.84 L 92.237 30.615 A 7.936 7.936 0 0 1 91.581 30.925 Q 91.254 31.062 90.877 31.193 A 15.434 15.434 0 0 1 90.406 31.348 Q 89.307 31.69 87.989 31.958 Q 86.67 32.227 85.352 32.447 A 408.454 408.454 0 0 1 83.429 32.762 A 362.931 362.931 0 0 1 82.813 32.862 Q 80.587 33.167 78.946 33.863 A 10.404 10.404 0 0 0 78.565 34.033 A 7.983 7.983 0 0 0 77.185 34.853 A 5.907 5.907 0 0 0 75.879 36.182 A 5.058 5.058 0 0 0 75.017 38.408 A 6.652 6.652 0 0 0 74.951 39.356 A 5.84 5.84 0 0 0 75.129 40.829 A 4.515 4.515 0 0 0 75.879 42.407 Q 76.807 43.653 78.369 44.312 A 8.155 8.155 0 0 0 80.282 44.845 A 10.968 10.968 0 0 0 81.983 44.971 Q 84.864 44.971 87.183 43.799 A 9.605 9.605 0 0 0 90.275 41.373 A 9.303 9.303 0 0 0 90.869 40.576 A 8.174 8.174 0 0 0 92.215 36.502 A 10.108 10.108 0 0 0 92.237 35.84 Z" vector-effect="non-scaling-stroke"/></g></svg>